<svg width="512" height="512" viewBox="0 0 512 512" fill="none" xmlns="http://www.w3.org/2000/svg">
  <defs>
    <!-- App icon background with rounded corners -->
    <clipPath id="roundedCorners">
      <rect x="0" y="0" width="512" height="512" rx="120" ry="120"/>
    </clipPath>
    
    <!-- Primary gradient -->
    <linearGradient id="primaryGradient" x1="0%" y1="0%" x2="100%" y2="100%">
      <stop offset="0%" style="stop-color:#1E40AF;stop-opacity:1" />
      <stop offset="50%" style="stop-color:#3B82F6;stop-opacity:1" />
      <stop offset="100%" style="stop-color:#60A5FA;stop-opacity:1" />
    </linearGradient>
    
    <!-- Gold accent gradient -->
    <linearGradient id="goldGradient" x1="0%" y1="0%" x2="100%" y2="100%">
      <stop offset="0%" style="stop-color:#F59E0B;stop-opacity:1" />
      <stop offset="100%" style="stop-color:#FCD34D;stop-opacity:1" />
    </linearGradient>
    
    <!-- Healthcare green gradient -->
    <linearGradient id="healthGradient" x1="0%" y1="0%" x2="100%" y2="100%">
      <stop offset="0%" style="stop-color:#10B981;stop-opacity:1" />
      <stop offset="100%" style="stop-color:#34D399;stop-opacity:1" />
    </linearGradient>
    
    <!-- Contract stream gradients -->
    <linearGradient id="stream1" x1="0%" y1="0%" x2="100%" y2="100%">
      <stop offset="0%" style="stop-color:#3B82F6;stop-opacity:0.8" />
      <stop offset="100%" style="stop-color:#60A5FA;stop-opacity:0.4" />
    </linearGradient>
    
    <linearGradient id="stream2" x1="0%" y1="0%" x2="100%" y2="100%">
      <stop offset="0%" style="stop-color:#8B5CF6;stop-opacity:0.8" />
      <stop offset="100%" style="stop-color:#A78BFA;stop-opacity:0.4" />
    </linearGradient>
    
    <linearGradient id="stream3" x1="0%" y1="0%" x2="100%" y2="100%">
      <stop offset="0%" style="stop-color:#06B6D4;stop-opacity:0.8" />
      <stop offset="100%" style="stop-color:#22D3EE;stop-opacity:0.4" />
    </linearGradient>
  </defs>
  
  <!-- App icon background -->
  <rect x="0" y="0" width="512" height="512" fill="url(#primaryGradient)" clip-path="url(#roundedCorners)"/>
  
  <!-- Subtle background pattern -->
  <circle cx="256" cy="256" r="200" fill="white" opacity="0.1"/>
  
  <!-- Central hexagonal hub -->
  <g transform="translate(256, 256)">
    <!-- Outer hexagon -->
    <polygon points="0,-100 87,-50 87,50 0,100 -87,50 -87,-50" 
             fill="white" 
             stroke="#1E40AF" 
             stroke-width="3"
             opacity="0.95"/>
    
    <!-- Inner hexagon -->
    <polygon points="0,-70 61,-35 61,35 0,70 -61,35 -61,-35" 
             fill="url(#primaryGradient)" 
             opacity="0.9"/>
    
    <!-- Central data visualization element -->
    <g transform="translate(0, -5)">
      <!-- Bar chart elements -->
      <rect x="-25" y="15" width="6" height="35" fill="url(#goldGradient)" rx="2"/>
      <rect x="-12" y="25" width="6" height="25" fill="url(#healthGradient)" rx="2"/>
      <rect x="0" y="10" width="6" height="40" fill="url(#goldGradient)" rx="2"/>
      <rect x="12" y="20" width="6" height="30" fill="url(#healthGradient)" rx="2"/>
      <rect x="25" y="5" width="6" height="45" fill="url(#goldGradient)" rx="2"/>
    </g>
    
    <!-- Healthcare cross symbol -->
    <g transform="translate(0, -50)" opacity="0.9">
      <rect x="-1.5" y="-6" width="3" height="12" fill="url(#healthGradient)" rx="1"/>
      <rect x="-6" y="-1.5" width="12" height="3" fill="url(#healthGradient)" rx="1"/>
    </g>
  </g>
  
  <!-- Contract streams flowing into the hub -->
  <!-- Stream 1 (top-left) -->
  <path d="M 100 100 Q 160 160 200 200 Q 220 220 256 256" 
        stroke="url(#stream1)" 
        stroke-width="6" 
        fill="none" 
        stroke-linecap="round"/>
  
  <!-- Stream 2 (top-right) -->
  <path d="M 412 100 Q 352 160 312 200 Q 292 220 256 256" 
        stroke="url(#stream2)" 
        stroke-width="6" 
        fill="none" 
        stroke-linecap="round"/>
  
  <!-- Stream 3 (bottom-left) -->
  <path d="M 100 412 Q 160 352 200 312 Q 220 292 256 256" 
        stroke="url(#stream3)" 
        stroke-width="6" 
        fill="none" 
        stroke-linecap="round"/>
  
  <!-- Stream 4 (bottom-right) -->
  <path d="M 412 412 Q 352 352 312 312 Q 292 292 256 256" 
        stroke="url(#stream1)" 
        stroke-width="6" 
        fill="none" 
        stroke-linecap="round"/>
  
  <!-- Contract document symbols at stream origins -->
  <!-- Document 1 -->
  <g transform="translate(100, 100)">
    <rect x="-10" y="-12" width="20" height="24" fill="white" stroke="#3B82F6" stroke-width="2" rx="3"/>
    <line x1="-6" y1="-6" x2="6" y2="-6" stroke="#3B82F6" stroke-width="1.5"/>
    <line x1="-6" y1="-1" x2="4" y2="-1" stroke="#3B82F6" stroke-width="1.5"/>
    <line x1="-6" y1="4" x2="6" y2="4" stroke="#3B82F6" stroke-width="1.5"/>
    <line x1="-6" y1="9" x2="2" y2="9" stroke="#3B82F6" stroke-width="1.5"/>
  </g>
  
  <!-- Document 2 -->
  <g transform="translate(412, 100)">
    <rect x="-10" y="-12" width="20" height="24" fill="white" stroke="#8B5CF6" stroke-width="2" rx="3"/>
    <line x1="-6" y1="-6" x2="6" y2="-6" stroke="#8B5CF6" stroke-width="1.5"/>
    <line x1="-6" y1="-1" x2="4" y2="-1" stroke="#8B5CF6" stroke-width="1.5"/>
    <line x1="-6" y1="4" x2="6" y2="4" stroke="#8B5CF6" stroke-width="1.5"/>
    <line x1="-6" y1="9" x2="2" y2="9" stroke="#8B5CF6" stroke-width="1.5"/>
  </g>
  
  <!-- Document 3 -->
  <g transform="translate(100, 412)">
    <rect x="-10" y="-12" width="20" height="24" fill="white" stroke="#06B6D4" stroke-width="2" rx="3"/>
    <line x1="-6" y1="-6" x2="6" y2="-6" stroke="#06B6D4" stroke-width="1.5"/>
    <line x1="-6" y1="-1" x2="4" y2="-1" stroke="#06B6D4" stroke-width="1.5"/>
    <line x1="-6" y1="4" x2="6" y2="4" stroke="#06B6D4" stroke-width="1.5"/>
    <line x1="-6" y1="9" x2="2" y2="9" stroke="#06B6D4" stroke-width="1.5"/>
  </g>
  
  <!-- Document 4 -->
  <g transform="translate(412, 412)">
    <rect x="-10" y="-12" width="20" height="24" fill="white" stroke="#3B82F6" stroke-width="2" rx="3"/>
    <line x1="-6" y1="-6" x2="6" y2="-6" stroke="#3B82F6" stroke-width="1.5"/>
    <line x1="-6" y1="-1" x2="4" y2="-1" stroke="#3B82F6" stroke-width="1.5"/>
    <line x1="-6" y1="4" x2="6" y2="4" stroke="#3B82F6" stroke-width="1.5"/>
    <line x1="-6" y1="9" x2="2" y2="9" stroke="#3B82F6" stroke-width="1.5"/>
  </g>
  
  <!-- Data connection dots along streams -->
  <circle cx="160" cy="160" r="3" fill="url(#stream1)"/>
  <circle cx="352" cy="160" r="3" fill="url(#stream2)"/>
  <circle cx="160" cy="352" r="3" fill="url(#stream3)"/>
  <circle cx="352" cy="352" r="3" fill="url(#stream1)"/>
  
  <!-- Central connection point -->
  <circle cx="256" cy="256" r="4" fill="white" stroke="#1E40AF" stroke-width="2"/>
</svg>


