<svg width="512" height="512" viewBox="0 0 512 512" fill="none" xmlns="http://www.w3.org/2000/svg">
  <defs>
    <!-- Primary gradient -->
    <linearGradient id="primaryGradient" x1="0%" y1="0%" x2="100%" y2="100%">
      <stop offset="0%" style="stop-color:#1E40AF;stop-opacity:1" />
      <stop offset="50%" style="stop-color:#3B82F6;stop-opacity:1" />
      <stop offset="100%" style="stop-color:#60A5FA;stop-opacity:1" />
    </linearGradient>
    
    <!-- Gold accent gradient -->
    <linearGradient id="goldGradient" x1="0%" y1="0%" x2="100%" y2="100%">
      <stop offset="0%" style="stop-color:#F59E0B;stop-opacity:1" />
      <stop offset="100%" style="stop-color:#FCD34D;stop-opacity:1" />
    </linearGradient>
    
    <!-- Healthcare green gradient -->
    <linearGradient id="healthGradient" x1="0%" y1="0%" x2="100%" y2="100%">
      <stop offset="0%" style="stop-color:#10B981;stop-opacity:1" />
      <stop offset="100%" style="stop-color:#34D399;stop-opacity:1" />
    </linearGradient>
    
    <!-- Contract stream gradients -->
    <linearGradient id="stream1" x1="0%" y1="0%" x2="100%" y2="100%">
      <stop offset="0%" style="stop-color:#3B82F6;stop-opacity:0.8" />
      <stop offset="100%" style="stop-color:#60A5FA;stop-opacity:0.4" />
    </linearGradient>
    
    <linearGradient id="stream2" x1="0%" y1="0%" x2="100%" y2="100%">
      <stop offset="0%" style="stop-color:#8B5CF6;stop-opacity:0.8" />
      <stop offset="100%" style="stop-color:#A78BFA;stop-opacity:0.4" />
    </linearGradient>
    
    <linearGradient id="stream3" x1="0%" y1="0%" x2="100%" y2="100%">
      <stop offset="0%" style="stop-color:#06B6D4;stop-opacity:0.8" />
      <stop offset="100%" style="stop-color:#22D3EE;stop-opacity:0.4" />
    </linearGradient>
  </defs>
  
  <!-- Background circle with subtle shadow -->
  <circle cx="256" cy="256" r="240" fill="url(#primaryGradient)" opacity="0.1"/>
  
  <!-- Central hexagonal hub -->
  <g transform="translate(256, 256)">
    <!-- Outer hexagon -->
    <polygon points="0,-120 104,-60 104,60 0,120 -104,60 -104,-60" 
             fill="url(#primaryGradient)" 
             stroke="#1E40AF" 
             stroke-width="3"/>
    
    <!-- Inner hexagon -->
    <polygon points="0,-80 69,-40 69,40 0,80 -69,40 -69,-40" 
             fill="white" 
             opacity="0.9"/>
    
    <!-- Central data visualization element -->
    <g transform="translate(0, -10)">
      <!-- Bar chart elements -->
      <rect x="-30" y="20" width="8" height="40" fill="url(#goldGradient)" rx="2"/>
      <rect x="-15" y="30" width="8" height="30" fill="url(#healthGradient)" rx="2"/>
      <rect x="0" y="15" width="8" height="45" fill="url(#goldGradient)" rx="2"/>
      <rect x="15" y="25" width="8" height="35" fill="url(#healthGradient)" rx="2"/>
      <rect x="30" y="10" width="8" height="50" fill="url(#goldGradient)" rx="2"/>
    </g>
    
    <!-- Healthcare cross symbol -->
    <g transform="translate(0, -60)" opacity="0.8">
      <rect x="-2" y="-8" width="4" height="16" fill="url(#healthGradient)" rx="1"/>
      <rect x="-8" y="-2" width="16" height="4" fill="url(#healthGradient)" rx="1"/>
    </g>
  </g>
  
  <!-- Contract streams flowing into the hub -->
  <!-- Stream 1 (top-left) -->
  <path d="M 80 80 Q 150 150 200 200 Q 220 220 256 256" 
        stroke="url(#stream1)" 
        stroke-width="8" 
        fill="none" 
        stroke-linecap="round"/>
  
  <!-- Stream 2 (top-right) -->
  <path d="M 432 80 Q 362 150 312 200 Q 292 220 256 256" 
        stroke="url(#stream2)" 
        stroke-width="8" 
        fill="none" 
        stroke-linecap="round"/>
  
  <!-- Stream 3 (bottom-left) -->
  <path d="M 80 432 Q 150 362 200 312 Q 220 292 256 256" 
        stroke="url(#stream3)" 
        stroke-width="8" 
        fill="none" 
        stroke-linecap="round"/>
  
  <!-- Stream 4 (bottom-right) -->
  <path d="M 432 432 Q 362 362 312 312 Q 292 292 256 256" 
        stroke="url(#stream1)" 
        stroke-width="8" 
        fill="none" 
        stroke-linecap="round"/>
  
  <!-- Contract document symbols at stream origins -->
  <!-- Document 1 -->
  <g transform="translate(80, 80)">
    <rect x="-12" y="-16" width="24" height="32" fill="white" stroke="#3B82F6" stroke-width="2" rx="3"/>
    <line x1="-8" y1="-8" x2="8" y2="-8" stroke="#3B82F6" stroke-width="1.5"/>
    <line x1="-8" y1="-2" x2="6" y2="-2" stroke="#3B82F6" stroke-width="1.5"/>
    <line x1="-8" y1="4" x2="8" y2="4" stroke="#3B82F6" stroke-width="1.5"/>
    <line x1="-8" y1="10" x2="4" y2="10" stroke="#3B82F6" stroke-width="1.5"/>
  </g>
  
  <!-- Document 2 -->
  <g transform="translate(432, 80)">
    <rect x="-12" y="-16" width="24" height="32" fill="white" stroke="#8B5CF6" stroke-width="2" rx="3"/>
    <line x1="-8" y1="-8" x2="8" y2="-8" stroke="#8B5CF6" stroke-width="1.5"/>
    <line x1="-8" y1="-2" x2="6" y2="-2" stroke="#8B5CF6" stroke-width="1.5"/>
    <line x1="-8" y1="4" x2="8" y2="4" stroke="#8B5CF6" stroke-width="1.5"/>
    <line x1="-8" y1="10" x2="4" y2="10" stroke="#8B5CF6" stroke-width="1.5"/>
  </g>
  
  <!-- Document 3 -->
  <g transform="translate(80, 432)">
    <rect x="-12" y="-16" width="24" height="32" fill="white" stroke="#06B6D4" stroke-width="2" rx="3"/>
    <line x1="-8" y1="-8" x2="8" y2="-8" stroke="#06B6D4" stroke-width="1.5"/>
    <line x1="-8" y1="-2" x2="6" y2="-2" stroke="#06B6D4" stroke-width="1.5"/>
    <line x1="-8" y1="4" x2="8" y2="4" stroke="#06B6D4" stroke-width="1.5"/>
    <line x1="-8" y1="10" x2="4" y2="10" stroke="#06B6D4" stroke-width="1.5"/>
  </g>
  
  <!-- Document 4 -->
  <g transform="translate(432, 432)">
    <rect x="-12" y="-16" width="24" height="32" fill="white" stroke="#3B82F6" stroke-width="2" rx="3"/>
    <line x1="-8" y1="-8" x2="8" y2="-8" stroke="#3B82F6" stroke-width="1.5"/>
    <line x1="-8" y1="-2" x2="6" y2="-2" stroke="#3B82F6" stroke-width="1.5"/>
    <line x1="-8" y1="4" x2="8" y2="4" stroke="#3B82F6" stroke-width="1.5"/>
    <line x1="-8" y1="10" x2="4" y2="10" stroke="#3B82F6" stroke-width="1.5"/>
  </g>
  
  <!-- Data connection dots along streams -->
  <circle cx="150" cy="150" r="4" fill="url(#stream1)"/>
  <circle cx="362" cy="150" r="4" fill="url(#stream2)"/>
  <circle cx="150" cy="362" r="4" fill="url(#stream3)"/>
  <circle cx="362" cy="362" r="4" fill="url(#stream1)"/>
  
  <!-- Central connection point -->
  <circle cx="256" cy="256" r="6" fill="url(#primaryGradient)" stroke="white" stroke-width="2"/>
</svg>


